<mxfile host="65bd71144e">
    <diagram id="5DfwSMmlrQ2DYcHCKKRp" name="ページ1">
        <mxGraphModel dx="863" dy="1203" grid="1" gridSize="10" guides="1" tooltips="1" connect="1" arrows="1" fold="1" page="1" pageScale="1" pageWidth="827" pageHeight="1169" math="0" shadow="0">
            <root>
                <mxCell id="0"/>
                <mxCell id="1" parent="0"/>
                <mxCell id="14" value="" style="rounded=0;whiteSpace=wrap;html=1;strokeColor=none;" vertex="1" parent="1">
                    <mxGeometry x="35" y="160" width="875" height="650" as="geometry"/>
                </mxCell>
                <mxCell id="iqDvwW4yLdDJP2QT4Gw2-2" value="学生" style="shape=umlActor;verticalLabelPosition=bottom;verticalAlign=top;html=1;" parent="1" vertex="1">
                    <mxGeometry x="80" y="280" width="30" height="60" as="geometry"/>
                </mxCell>
                <mxCell id="iqDvwW4yLdDJP2QT4Gw2-3" value="メニュー&lt;div&gt;画面&lt;/div&gt;" style="shape=umlBoundary;whiteSpace=wrap;html=1;fillColor=#d5e8d4;strokeColor=#82b366;" parent="1" vertex="1">
                    <mxGeometry x="220" y="200" width="100" height="80" as="geometry"/>
                </mxCell>
                <mxCell id="iqDvwW4yLdDJP2QT4Gw2-5" value="" style="endArrow=classic;html=1;rounded=0;entryX=0.002;entryY=0.511;entryDx=0;entryDy=0;entryPerimeter=0;" parent="1" source="iqDvwW4yLdDJP2QT4Gw2-2" target="iqDvwW4yLdDJP2QT4Gw2-3" edge="1">
                    <mxGeometry width="50" height="50" relative="1" as="geometry">
                        <mxPoint x="200" y="410" as="sourcePoint"/>
                        <mxPoint x="250" y="360" as="targetPoint"/>
                    </mxGeometry>
                </mxCell>
                <mxCell id="iqDvwW4yLdDJP2QT4Gw2-6" value="入学手続メニューを選択" style="text;html=1;align=center;verticalAlign=middle;whiteSpace=wrap;rounded=0;" parent="1" vertex="1">
                    <mxGeometry x="100" y="225" width="90" height="30" as="geometry"/>
                </mxCell>
                <mxCell id="iqDvwW4yLdDJP2QT4Gw2-7" value="入学手続&lt;div&gt;画面表示&lt;/div&gt;" style="ellipse;shape=umlControl;whiteSpace=wrap;html=1;fillColor=#f8cecc;strokeColor=#b85450;" parent="1" vertex="1">
                    <mxGeometry x="414" y="240" width="70" height="80" as="geometry"/>
                </mxCell>
                <mxCell id="iqDvwW4yLdDJP2QT4Gw2-23" value="" style="endArrow=classic;html=1;rounded=0;entryX=-0.029;entryY=0.495;entryDx=0;entryDy=0;entryPerimeter=0;exitX=1.016;exitY=0.515;exitDx=0;exitDy=0;exitPerimeter=0;" parent="1" source="iqDvwW4yLdDJP2QT4Gw2-3" target="iqDvwW4yLdDJP2QT4Gw2-7" edge="1">
                    <mxGeometry width="50" height="50" relative="1" as="geometry">
                        <mxPoint x="210" y="541" as="sourcePoint"/>
                        <mxPoint x="320" y="480" as="targetPoint"/>
                    </mxGeometry>
                </mxCell>
                <mxCell id="iqDvwW4yLdDJP2QT4Gw2-25" value="入学手続&lt;div&gt;画面&lt;/div&gt;" style="shape=umlBoundary;whiteSpace=wrap;html=1;fillColor=#d5e8d4;strokeColor=#82b366;" parent="1" vertex="1">
                    <mxGeometry x="220" y="400" width="100" height="80" as="geometry"/>
                </mxCell>
                <mxCell id="iqDvwW4yLdDJP2QT4Gw2-26" value="" style="endArrow=classic;html=1;rounded=0;entryX=0.948;entryY=0.272;entryDx=0;entryDy=0;entryPerimeter=0;exitX=0.062;exitY=0.834;exitDx=0;exitDy=0;exitPerimeter=0;" parent="1" source="iqDvwW4yLdDJP2QT4Gw2-7" target="iqDvwW4yLdDJP2QT4Gw2-25" edge="1">
                    <mxGeometry width="50" height="50" relative="1" as="geometry">
                        <mxPoint x="350" y="310" as="sourcePoint"/>
                        <mxPoint x="440" y="349" as="targetPoint"/>
                    </mxGeometry>
                </mxCell>
                <mxCell id="iqDvwW4yLdDJP2QT4Gw2-27" value="" style="endArrow=classic;html=1;rounded=0;entryX=-0.024;entryY=0.468;entryDx=0;entryDy=0;entryPerimeter=0;" parent="1" source="iqDvwW4yLdDJP2QT4Gw2-2" target="iqDvwW4yLdDJP2QT4Gw2-25" edge="1">
                    <mxGeometry width="50" height="50" relative="1" as="geometry">
                        <mxPoint x="130" y="351" as="sourcePoint"/>
                        <mxPoint x="240" y="290" as="targetPoint"/>
                    </mxGeometry>
                </mxCell>
                <mxCell id="iqDvwW4yLdDJP2QT4Gw2-28" value="学生情報を入力" style="text;html=1;align=center;verticalAlign=middle;whiteSpace=wrap;rounded=0;" parent="1" vertex="1">
                    <mxGeometry x="90" y="400" width="90" height="30" as="geometry"/>
                </mxCell>
                <mxCell id="iqDvwW4yLdDJP2QT4Gw2-29" value="学生情報&lt;div&gt;登録&lt;/div&gt;" style="ellipse;shape=umlControl;whiteSpace=wrap;html=1;fillColor=#f8cecc;strokeColor=#b85450;" parent="1" vertex="1">
                    <mxGeometry x="520" y="440" width="70" height="80" as="geometry"/>
                </mxCell>
                <mxCell id="iqDvwW4yLdDJP2QT4Gw2-30" value="" style="endArrow=classic;html=1;rounded=0;exitX=0.971;exitY=0.739;exitDx=0;exitDy=0;exitPerimeter=0;entryX=0.012;entryY=0.584;entryDx=0;entryDy=0;entryPerimeter=0;" parent="1" source="iqDvwW4yLdDJP2QT4Gw2-25" target="6" edge="1">
                    <mxGeometry width="50" height="50" relative="1" as="geometry">
                        <mxPoint x="433" y="400" as="sourcePoint"/>
                        <mxPoint x="400" y="400" as="targetPoint"/>
                    </mxGeometry>
                </mxCell>
                <mxCell id="iqDvwW4yLdDJP2QT4Gw2-31" value="学生情報" style="ellipse;shape=umlEntity;whiteSpace=wrap;html=1;fillColor=#dae8fc;strokeColor=#6c8ebf;" parent="1" vertex="1">
                    <mxGeometry x="706" y="440" width="100" height="80" as="geometry"/>
                </mxCell>
                <mxCell id="iqDvwW4yLdDJP2QT4Gw2-32" value="" style="endArrow=block;startArrow=block;endFill=1;startFill=1;html=1;rounded=0;exitX=1;exitY=0.625;exitDx=0;exitDy=0;exitPerimeter=0;entryX=0;entryY=0.625;entryDx=0;entryDy=0;entryPerimeter=0;fontColor=#FF0000;strokeColor=#000000;" parent="1" source="iqDvwW4yLdDJP2QT4Gw2-29" target="iqDvwW4yLdDJP2QT4Gw2-31" edge="1">
                    <mxGeometry width="160" relative="1" as="geometry">
                        <mxPoint x="590" y="640" as="sourcePoint"/>
                        <mxPoint x="750" y="640" as="targetPoint"/>
                    </mxGeometry>
                </mxCell>
                <mxCell id="2" value="" style="endArrow=classic;html=1;rounded=0;entryX=0.887;entryY=0.267;entryDx=0;entryDy=0;entryPerimeter=0;exitX=0.428;exitY=0.993;exitDx=0;exitDy=0;exitPerimeter=0;" parent="1" source="6" target="3" edge="1">
                    <mxGeometry width="50" height="50" relative="1" as="geometry">
                        <mxPoint x="320" y="550" as="sourcePoint"/>
                        <mxPoint x="418" y="569" as="targetPoint"/>
                    </mxGeometry>
                </mxCell>
                <mxCell id="3" value="エラーメッセージ表示" style="ellipse;shape=umlControl;whiteSpace=wrap;html=1;fillColor=#f8cecc;strokeColor=#b85450;" parent="1" vertex="1">
                    <mxGeometry x="320" y="630" width="70" height="80" as="geometry"/>
                </mxCell>
                <mxCell id="5" value="内容に不備がある" style="text;html=1;align=center;verticalAlign=middle;whiteSpace=wrap;rounded=0;" parent="1" vertex="1">
                    <mxGeometry x="340" y="520" width="90" height="30" as="geometry"/>
                </mxCell>
                <mxCell id="6" value="内容を検証" style="ellipse;shape=umlControl;whiteSpace=wrap;html=1;fillColor=#f8cecc;strokeColor=#b85450;" parent="1" vertex="1">
                    <mxGeometry x="414" y="440" width="70" height="80" as="geometry"/>
                </mxCell>
                <mxCell id="7" value="" style="endArrow=classic;html=1;rounded=0;entryX=0.005;entryY=0.515;entryDx=0;entryDy=0;entryPerimeter=0;exitX=0.999;exitY=0.515;exitDx=0;exitDy=0;exitPerimeter=0;" parent="1" source="6" target="iqDvwW4yLdDJP2QT4Gw2-29" edge="1">
                    <mxGeometry width="50" height="50" relative="1" as="geometry">
                        <mxPoint x="454" y="529" as="sourcePoint"/>
                        <mxPoint x="412" y="631" as="targetPoint"/>
                    </mxGeometry>
                </mxCell>
                <mxCell id="8" value="内容に問題なし" style="text;html=1;align=center;verticalAlign=middle;whiteSpace=wrap;rounded=0;" parent="1" vertex="1">
                    <mxGeometry x="465" y="410" width="90" height="30" as="geometry"/>
                </mxCell>
                <mxCell id="9" value="" style="endArrow=classic;html=1;rounded=0;exitX=0.732;exitY=0.97;exitDx=0;exitDy=0;exitPerimeter=0;entryX=0.147;entryY=0.22;entryDx=0;entryDy=0;entryPerimeter=0;" parent="1" source="iqDvwW4yLdDJP2QT4Gw2-29" target="10" edge="1">
                    <mxGeometry width="50" height="50" relative="1" as="geometry">
                        <mxPoint x="454" y="529" as="sourcePoint"/>
                        <mxPoint x="620" y="610" as="targetPoint"/>
                    </mxGeometry>
                </mxCell>
                <mxCell id="10" value="予約完了&lt;div&gt;画面表示&lt;/div&gt;" style="ellipse;shape=umlControl;whiteSpace=wrap;html=1;fillColor=#f8cecc;strokeColor=#b85450;" parent="1" vertex="1">
                    <mxGeometry x="580" y="545" width="70" height="80" as="geometry"/>
                </mxCell>
                <mxCell id="11" value="予約完了&lt;div&gt;画面&lt;/div&gt;" style="shape=umlBoundary;whiteSpace=wrap;html=1;fillColor=#d5e8d4;strokeColor=#82b366;" parent="1" vertex="1">
                    <mxGeometry x="700" y="570" width="100" height="80" as="geometry"/>
                </mxCell>
                <mxCell id="12" value="" style="endArrow=classic;html=1;rounded=0;entryX=-0.011;entryY=0.389;entryDx=0;entryDy=0;entryPerimeter=0;" parent="1" target="11" edge="1">
                    <mxGeometry width="50" height="50" relative="1" as="geometry">
                        <mxPoint x="650" y="601" as="sourcePoint"/>
                        <mxPoint x="690" y="601" as="targetPoint"/>
                    </mxGeometry>
                </mxCell>
                <mxCell id="13" value="" style="endArrow=classic;html=1;rounded=0;entryX=0.97;entryY=0.537;entryDx=0;entryDy=0;entryPerimeter=0;exitX=0.997;exitY=0.616;exitDx=0;exitDy=0;exitPerimeter=0;" parent="1" source="3" target="iqDvwW4yLdDJP2QT4Gw2-7" edge="1">
                    <mxGeometry width="50" height="50" relative="1" as="geometry">
                        <mxPoint x="840" y="283" as="sourcePoint"/>
                        <mxPoint x="425" y="497" as="targetPoint"/>
                        <Array as="points">
                            <mxPoint x="880" y="679"/>
                            <mxPoint x="880" y="283"/>
                        </Array>
                    </mxGeometry>
                </mxCell>
            </root>
        </mxGraphModel>
    </diagram>
</mxfile>